<svg aria-hidden="true" style="position: absolute; width: 0; height: 0; overflow: hidden;" version="1.1" xmlns="http://www.w3.org/2000/svg" xmlns:xlink="http://www.w3.org/1999/xlink">
<defs>
<symbol id="icon-instagram" viewBox="0 0 32 32">
<path d="M23.208 0h-14.594c-4.75 0-8.614 3.864-8.614 8.613v14.592c0 4.749 3.864 8.612 8.614 8.612h14.594c4.749 0 8.614-3.864 8.614-8.612v-14.592c0-4.749-3.864-8.613-8.614-8.613v0zM15.911 24.608c-4.798 0-8.701-3.902-8.701-8.7s3.903-8.7 8.701-8.7c4.798 0 8.701 3.903 8.701 8.7s-3.903 8.7-8.701 8.7v0zM24.82 9.261c-1.418 0-2.571-1.153-2.571-2.571s1.153-2.571 2.571-2.571c1.418 0 2.571 1.153 2.571 2.571s-1.153 2.571-2.571 2.571z"></path>
<path d="M15.908 9.075c-3.769 0-6.835 3.066-6.835 6.835s3.066 6.834 6.835 6.834c3.769 0 6.835-3.066 6.835-6.835s-3.066-6.835-6.835-6.835v0z"></path>
<path d="M24.826 5.982c-0.389 0-0.706 0.317-0.706 0.705s0.317 0.705 0.706 0.705c0.389 0 0.706-0.316 0.706-0.705s-0.317-0.705-0.706-0.705z"></path>
</symbol>
<symbol id="icon-facebook" viewBox="0 0 18 32">
<path d="M12.825 6.928h4.551v-5.474h-4.551c-3.765 0-6.827 3.223-6.827 7.184v2.764h-4.552v5.492h4.552v13.299h5.689v-13.299h5.689v-5.492h-5.689v-2.815c0-0.949 0.602-1.659 1.138-1.659z"></path>
</symbol>
<symbol id="icon-twitter" viewBox="0 0 40 32">
<path d="M2.499 2.176c0 0 5.676 7.728 16.134 7.886 0 0-0.892-6.702 5.107-8.753 0 0 5.107-2.050 8.513 1.814 0 0 3.972-0.632 4.864-1.814 0 0-0.243 2.375-2.999 4.105 0 0 2.514-0.004 4.296-0.95 0 0-2.508 3.052-3.594 3.527-0.019 0.008-0.036 0.015-0.054 0.021-1.053 0.394 1.135 7.255-5.431 15.378 0 0-4.976 6.544-14.27 7.807-3.779 0.513-9.323 0.947-14.917-3.155 0 0 5.675 0.71 11.35-3.39 0 0-5.836-0.474-7.215-5.205 0 0 2.675 0 3.243-0.078 0 0-6.242-2.051-6.16-7.847 0 0 2.107 0.907 3.283 0.788 0 0-5.27-3.825-2.149-10.133z"></path>
</symbol>
<symbol id="icon-logo" viewBox="0 0 54 32">
<path d="M17.35 21.937h0.974c0 0 0 0.015 0 0.044 0 0.098-0.026 0.159-0.077 0.18-0.026 0.015-0.057 0.024-0.093 0.027l-0.257 0.011v3.381c-0.091 0.040-0.186 0.060-0.284 0.060l-1.953-3.009v2.735l0.399 0.033c0.015 0.16-0.035 0.241-0.148 0.241h-0.974c0 0 0-0.015 0-0.044 0-0.095 0.026-0.157 0.077-0.186 0.026-0.011 0.057-0.018 0.093-0.022l0.252-0.011v-3.167l-0.399-0.033c-0.015-0.16 0.035-0.241 0.148-0.241h0.58l1.915 2.954v-2.68l-0.399-0.033c-0.015-0.16 0.035-0.241 0.148-0.241zM20.805 24.202h-1.718c-0.004 0.036-0.005 0.093-0.005 0.17 0 0.31 0.066 0.562 0.197 0.755 0.131 0.19 0.335 0.284 0.613 0.284s0.542-0.098 0.793-0.295c0.044 0.036 0.066 0.082 0.066 0.137 0 0.102-0.1 0.206-0.301 0.312-0.197 0.106-0.419 0.159-0.667 0.159-0.339 0-0.611-0.111-0.815-0.334-0.201-0.222-0.301-0.562-0.301-1.017s0.12-0.817 0.361-1.083c0.241-0.27 0.525-0.405 0.853-0.405s0.565 0.104 0.711 0.312c0.146 0.208 0.217 0.456 0.213 0.744v0.263zM20.405 23.956c0-0.244-0.047-0.438-0.142-0.58-0.095-0.146-0.233-0.219-0.416-0.219-0.179 0-0.332 0.071-0.459 0.213s-0.217 0.337-0.268 0.585h1.285zM22.369 23.168c-0.248 0-0.439 0.108-0.574 0.323s-0.202 0.49-0.202 0.826c0 0.332 0.066 0.604 0.197 0.815 0.131 0.208 0.321 0.312 0.569 0.312 0.248-0.004 0.439-0.109 0.574-0.317s0.202-0.476 0.202-0.804c0-0.332-0.066-0.607-0.197-0.826-0.128-0.222-0.317-0.332-0.569-0.328zM22.401 22.884c0.277 0 0.527 0.088 0.749 0.263 0.117 0.095 0.21 0.233 0.279 0.416 0.073 0.182 0.109 0.401 0.109 0.656 0.007 0.452-0.098 0.817-0.317 1.094-0.219 0.273-0.514 0.41-0.886 0.41s-0.655-0.117-0.848-0.35c-0.193-0.233-0.294-0.571-0.301-1.012-0.004-0.441 0.104-0.797 0.323-1.067 0.222-0.273 0.52-0.41 0.892-0.41zM25.972 22.085c0.117 0.098 0.175 0.213 0.175 0.345s-0.035 0.226-0.104 0.284c-0.066 0.055-0.146 0.080-0.241 0.077 0-0.423-0.222-0.635-0.667-0.635-0.208 0-0.381 0.049-0.52 0.148-0.135 0.098-0.202 0.235-0.202 0.41 0 0.208 0.1 0.376 0.301 0.503 0.109 0.069 0.199 0.12 0.268 0.153s0.179 0.082 0.328 0.148c0.15 0.062 0.264 0.113 0.345 0.153 0.084 0.040 0.175 0.093 0.273 0.159 0.098 0.062 0.171 0.122 0.219 0.18 0.117 0.15 0.175 0.323 0.175 0.52 0 0.328-0.124 0.609-0.372 0.842-0.244 0.233-0.567 0.35-0.968 0.35-0.288 0-0.543-0.058-0.766-0.175-0.219-0.117-0.328-0.272-0.328-0.465 0-0.095 0.027-0.173 0.082-0.235 0.058-0.062 0.137-0.093 0.235-0.093 0.044 0.219 0.14 0.385 0.29 0.498s0.348 0.17 0.596 0.17c0.248 0 0.452-0.067 0.613-0.202 0.16-0.139 0.241-0.321 0.241-0.547 0-0.212-0.075-0.372-0.224-0.481-0.117-0.088-0.243-0.159-0.377-0.213-0.131-0.058-0.246-0.109-0.345-0.153s-0.199-0.091-0.301-0.142c-0.098-0.055-0.206-0.124-0.323-0.208-0.226-0.164-0.339-0.387-0.339-0.667s0.108-0.507 0.323-0.678c0.219-0.175 0.489-0.266 0.81-0.273 0.339-0.007 0.607 0.069 0.804 0.23zM27.97 22.884c0.233 0 0.417 0.047 0.552 0.142 0.138 0.095 0.208 0.221 0.208 0.377 0 0.201-0.102 0.297-0.306 0.29-0.004-0.135-0.051-0.253-0.142-0.356-0.088-0.106-0.221-0.159-0.399-0.159-0.259 0-0.458 0.108-0.596 0.323-0.135 0.215-0.202 0.487-0.202 0.815 0 0.288 0.056 0.536 0.17 0.744 0.131 0.23 0.357 0.345 0.678 0.345 0.263 0 0.512-0.097 0.749-0.29 0.047 0.033 0.071 0.077 0.071 0.131 0 0.109-0.104 0.217-0.312 0.323-0.208 0.102-0.43 0.153-0.667 0.153-0.347 0-0.615-0.12-0.804-0.361-0.186-0.241-0.283-0.569-0.29-0.985-0.007-0.419 0.104-0.773 0.334-1.061s0.549-0.432 0.957-0.432zM32.040 25.64h-1.039v-0.044c0-0.117 0.058-0.18 0.175-0.191l0.224-0.011v-1.373c0-0.266-0.057-0.465-0.17-0.596-0.113-0.135-0.261-0.202-0.443-0.202-0.179 0-0.327 0.029-0.443 0.088-0.113 0.058-0.235 0.146-0.366 0.263v1.811l0.416 0.033c0.015 0.15-0.037 0.224-0.153 0.224h-1.039v-0.044c0-0.088 0.025-0.142 0.077-0.164 0.025-0.015 0.056-0.024 0.093-0.027l0.23-0.011v-3.205l-0.284-0.027c-0.088-0.011-0.131-0.089-0.131-0.235l0.793-0.104v1.45c0.252-0.259 0.538-0.388 0.859-0.388 0.255 0 0.474 0.089 0.656 0.268 0.182 0.175 0.275 0.454 0.279 0.837l0.005 1.395 0.41 0.033c0.014 0.15-0.035 0.224-0.148 0.224zM33.72 23.168c-0.248 0-0.439 0.108-0.574 0.323s-0.202 0.49-0.202 0.826c0 0.332 0.066 0.604 0.197 0.815 0.131 0.208 0.321 0.312 0.569 0.312 0.248-0.004 0.44-0.109 0.574-0.317s0.202-0.476 0.202-0.804c0-0.332-0.066-0.607-0.197-0.826-0.127-0.222-0.317-0.332-0.569-0.328zM33.753 22.884c0.277 0 0.527 0.088 0.749 0.263 0.117 0.095 0.21 0.233 0.279 0.416 0.073 0.182 0.109 0.401 0.109 0.656 0.007 0.452-0.098 0.817-0.317 1.094-0.219 0.273-0.514 0.41-0.886 0.41s-0.654-0.117-0.848-0.35c-0.193-0.233-0.293-0.571-0.301-1.012-0.004-0.441 0.104-0.797 0.323-1.067 0.223-0.273 0.52-0.41 0.892-0.41zM36.498 23.168c-0.248 0-0.44 0.108-0.574 0.323s-0.202 0.49-0.202 0.826c0 0.332 0.066 0.604 0.197 0.815 0.131 0.208 0.321 0.312 0.569 0.312 0.248-0.004 0.439-0.109 0.574-0.317s0.202-0.476 0.202-0.804c0-0.332-0.066-0.607-0.197-0.826-0.128-0.222-0.317-0.332-0.569-0.328zM36.531 22.884c0.277 0 0.527 0.088 0.749 0.263 0.117 0.095 0.209 0.233 0.279 0.416 0.073 0.182 0.109 0.401 0.109 0.656 0.007 0.452-0.098 0.817-0.317 1.094-0.219 0.273-0.514 0.41-0.886 0.41s-0.655-0.117-0.848-0.35c-0.193-0.233-0.294-0.571-0.301-1.012-0.004-0.441 0.104-0.797 0.323-1.067 0.222-0.273 0.52-0.41 0.892-0.41zM39.161 25.64h-1.028v-0.044c0-0.117 0.058-0.18 0.175-0.191l0.235-0.011v-3.211l-0.284-0.027c-0.088-0.011-0.131-0.088-0.131-0.23l0.793-0.104v3.561l0.388 0.033c0.014 0.15-0.035 0.224-0.148 0.224z"></path>
<path d="M26.131 5.129c-1.883-1.601-6.706-1.835-8.882-1.751l0.856 11.884c3.424-0.4 6.777 0.917 8.026 1.626v-11.759z"></path>
<path d="M19.496 0v2.377c1.627-0.5 5.101 0.959 6.635 1.751v-0.751c-1.113-1.701-4.887-2.961-6.635-3.378z"></path>
<path d="M26.987 5.129c1.883-1.601 6.706-1.835 8.882-1.751l-0.856 11.884c-3.425-0.4-6.778 0.917-8.026 1.626v-11.759z"></path>
<path d="M33.622 0v2.377c-1.627-0.5-5.101 0.959-6.635 1.751v-0.751c1.113-1.701 4.887-2.961 6.635-3.378z"></path>
</symbol>
<symbol id="icon-line" viewBox="0 0 7469 32">
<path stroke-linejoin="round" stroke-linecap="round" stroke-miterlimit="4" stroke-width="6.4" d="M7462.4 25.6l-7456-19.475"></path>
</symbol>
</defs>
</svg>
