<svg aria-hidden="true" style="position: absolute; width: 0; height: 0; overflow: hidden;" version="1.1" xmlns="http://www.w3.org/2000/svg" xmlns:xlink="http://www.w3.org/1999/xlink">
<defs>
<symbol id="icon-logo" viewBox="0 0 63 32">
<path d="M9.057 22.877h2.234c0 0 0 0.033 0 0.1 0 0.226-0.059 0.364-0.176 0.414-0.059 0.033-0.13 0.054-0.213 0.063l-0.59 0.025v7.755c-0.209 0.092-0.427 0.138-0.653 0.138l-4.48-6.902v6.274l0.916 0.075c0.033 0.368-0.079 0.552-0.339 0.552h-2.234c0 0 0-0.033 0-0.1 0-0.218 0.059-0.36 0.176-0.427 0.059-0.025 0.13-0.042 0.213-0.050l0.577-0.025v-7.266l-0.916-0.075c-0.033-0.368 0.079-0.552 0.339-0.552h1.33l4.392 6.776v-6.149l-0.916-0.075c-0.033-0.368 0.079-0.552 0.339-0.552zM16.983 28.072h-3.94c-0.008 0.084-0.013 0.213-0.013 0.389 0 0.711 0.151 1.288 0.452 1.732 0.301 0.435 0.77 0.653 1.405 0.653s1.242-0.226 1.82-0.678c0.1 0.084 0.151 0.188 0.151 0.314 0 0.234-0.23 0.473-0.69 0.715-0.452 0.243-0.962 0.364-1.531 0.364-0.778 0-1.401-0.255-1.87-0.765-0.46-0.51-0.69-1.288-0.69-2.334s0.276-1.874 0.828-2.485c0.552-0.619 1.205-0.929 1.958-0.929s1.297 0.238 1.631 0.715c0.335 0.477 0.498 1.046 0.489 1.707v0.602zM16.067 27.507c0-0.561-0.109-1.004-0.326-1.33-0.218-0.335-0.535-0.502-0.954-0.502-0.41 0-0.761 0.163-1.054 0.489s-0.498 0.774-0.615 1.343h2.949zM20.571 25.7c-0.569 0-1.008 0.247-1.318 0.74s-0.464 1.125-0.464 1.895c0 0.761 0.151 1.385 0.452 1.87 0.301 0.477 0.736 0.715 1.305 0.715 0.569-0.008 1.008-0.251 1.318-0.728s0.464-1.092 0.464-1.845c0-0.761-0.151-1.393-0.452-1.895-0.293-0.51-0.728-0.761-1.305-0.753zM20.647 25.048c0.636 0 1.209 0.201 1.719 0.602 0.268 0.218 0.481 0.535 0.64 0.954 0.167 0.418 0.251 0.92 0.251 1.506 0.017 1.037-0.226 1.874-0.728 2.51-0.502 0.627-1.18 0.941-2.033 0.941s-1.502-0.268-1.945-0.803c-0.443-0.535-0.673-1.309-0.69-2.322-0.008-1.012 0.238-1.828 0.74-2.447 0.51-0.627 1.192-0.941 2.046-0.941zM28.839 23.216c0.268 0.226 0.402 0.489 0.402 0.791s-0.079 0.519-0.238 0.653c-0.151 0.125-0.335 0.184-0.552 0.176 0-0.97-0.51-1.456-1.531-1.456-0.477 0-0.874 0.113-1.192 0.339-0.31 0.226-0.464 0.54-0.464 0.941 0 0.477 0.23 0.862 0.69 1.154 0.251 0.159 0.456 0.276 0.615 0.351s0.41 0.188 0.753 0.339c0.343 0.142 0.607 0.259 0.791 0.351 0.192 0.092 0.402 0.213 0.627 0.364 0.226 0.142 0.393 0.28 0.502 0.414 0.268 0.343 0.402 0.74 0.402 1.192 0 0.753-0.284 1.397-0.853 1.933-0.561 0.535-1.301 0.803-2.221 0.803-0.661 0-1.247-0.134-1.757-0.402-0.502-0.268-0.753-0.623-0.753-1.067 0-0.218 0.063-0.397 0.188-0.54 0.134-0.142 0.314-0.213 0.54-0.213 0.1 0.502 0.322 0.883 0.665 1.142s0.799 0.389 1.368 0.389c0.569 0 1.037-0.155 1.405-0.464 0.368-0.318 0.552-0.736 0.552-1.255 0-0.485-0.171-0.853-0.514-1.104-0.268-0.201-0.556-0.364-0.866-0.489-0.301-0.134-0.565-0.251-0.791-0.351s-0.456-0.209-0.69-0.326c-0.226-0.125-0.473-0.284-0.74-0.477-0.519-0.376-0.778-0.887-0.778-1.531s0.247-1.163 0.74-1.556c0.502-0.402 1.121-0.611 1.857-0.627 0.778-0.017 1.393 0.159 1.845 0.527zM33.42 25.048c0.535 0 0.958 0.109 1.267 0.326 0.318 0.218 0.477 0.506 0.477 0.866 0 0.46-0.234 0.682-0.703 0.665-0.008-0.31-0.117-0.581-0.326-0.816-0.201-0.243-0.506-0.364-0.916-0.364-0.594 0-1.050 0.247-1.368 0.74-0.31 0.494-0.464 1.117-0.464 1.87 0 0.661 0.13 1.23 0.389 1.707 0.301 0.527 0.82 0.791 1.556 0.791 0.602 0 1.175-0.222 1.719-0.665 0.109 0.075 0.163 0.176 0.163 0.301 0 0.251-0.238 0.498-0.715 0.74-0.477 0.234-0.987 0.351-1.531 0.351-0.795 0-1.41-0.276-1.845-0.828-0.427-0.552-0.648-1.305-0.665-2.259-0.017-0.962 0.238-1.774 0.765-2.434s1.259-0.991 2.196-0.991zM42.759 31.373h-2.384v-0.1c0-0.268 0.134-0.414 0.402-0.439l0.514-0.025v-3.15c0-0.611-0.13-1.067-0.389-1.368-0.259-0.31-0.598-0.464-1.016-0.464-0.41 0-0.749 0.067-1.016 0.201-0.259 0.134-0.54 0.335-0.841 0.602v4.154l0.954 0.075c0.033 0.343-0.084 0.514-0.351 0.514h-2.384v-0.1c0-0.201 0.059-0.326 0.176-0.376 0.059-0.033 0.13-0.054 0.213-0.063l0.527-0.025v-7.354l-0.653-0.063c-0.201-0.025-0.301-0.205-0.301-0.54l1.82-0.238v3.325c0.577-0.594 1.234-0.891 1.97-0.891 0.586 0 1.088 0.205 1.506 0.615 0.418 0.402 0.632 1.042 0.64 1.92l0.013 3.2 0.941 0.075c0.033 0.343-0.079 0.514-0.339 0.514zM46.613 25.7c-0.569 0-1.008 0.247-1.318 0.74s-0.464 1.125-0.464 1.895c0 0.761 0.151 1.385 0.452 1.87 0.301 0.477 0.736 0.715 1.305 0.715 0.569-0.008 1.008-0.251 1.318-0.728s0.464-1.092 0.464-1.845c0-0.761-0.151-1.393-0.452-1.895-0.293-0.51-0.728-0.761-1.305-0.753zM46.688 25.048c0.636 0 1.209 0.201 1.719 0.602 0.268 0.218 0.481 0.535 0.64 0.954 0.167 0.418 0.251 0.92 0.251 1.506 0.017 1.037-0.226 1.874-0.728 2.51-0.502 0.627-1.18 0.941-2.033 0.941s-1.502-0.268-1.945-0.803c-0.443-0.535-0.673-1.309-0.69-2.322-0.008-1.012 0.238-1.828 0.74-2.447 0.51-0.627 1.192-0.941 2.045-0.941zM52.986 25.7c-0.569 0-1.008 0.247-1.318 0.74s-0.464 1.125-0.464 1.895c0 0.761 0.151 1.385 0.452 1.87 0.301 0.477 0.736 0.715 1.305 0.715 0.569-0.008 1.008-0.251 1.318-0.728s0.464-1.092 0.464-1.845c0-0.761-0.151-1.393-0.452-1.895-0.293-0.51-0.728-0.761-1.305-0.753zM53.061 25.048c0.636 0 1.209 0.201 1.719 0.602 0.268 0.218 0.481 0.535 0.64 0.954 0.167 0.418 0.251 0.92 0.251 1.506 0.017 1.037-0.226 1.874-0.728 2.51-0.502 0.627-1.18 0.941-2.033 0.941s-1.502-0.268-1.945-0.803c-0.443-0.535-0.673-1.309-0.69-2.322-0.008-1.012 0.238-1.828 0.74-2.447 0.51-0.627 1.192-0.941 2.045-0.941zM59.095 31.373h-2.359v-0.1c0-0.268 0.134-0.414 0.402-0.439l0.54-0.025v-7.366l-0.653-0.063c-0.201-0.025-0.301-0.201-0.301-0.527l1.82-0.238v8.169l0.891 0.075c0.033 0.343-0.080 0.515-0.339 0.515z"></path>
<path d="M30.277 5.943c-2.182-1.855-7.77-2.126-10.291-2.029l0.992 13.77c3.968-0.464 7.853 1.063 9.299 1.884v-13.625z"></path>
<path d="M22.589 0v2.754c1.885-0.58 5.91 1.111 7.687 2.029v-0.87c-1.29-1.971-5.662-3.43-7.687-3.913z"></path>
<path d="M31.269 5.943c2.182-1.855 7.77-2.126 10.291-2.029l-0.992 13.77c-3.968-0.464-7.853 1.063-9.299 1.884v-13.625z"></path>
<path d="M38.956 0v2.754c-1.885-0.58-5.91 1.111-7.687 2.029v-0.87c1.29-1.971 5.662-3.43 7.687-3.913z"></path>
</symbol>
<symbol id="icon-arrow" viewBox="0 0 13 32">
<path d="M7.158 0.842c0-0.465-0.377-0.842-0.842-0.842s-0.842 0.377-0.842 0.842h1.684zM5.72 31.753c0.329 0.329 0.862 0.329 1.191 0l5.359-5.359c0.329-0.329 0.329-0.862 0-1.191s-0.862-0.329-1.191 0l-4.764 4.764-4.764-4.764c-0.329-0.329-0.862-0.329-1.191 0s-0.329 0.862 0 1.191l5.359 5.359zM5.474 0.842v30.316h1.684v-30.316h-1.684z"></path>
</symbol>
<symbol id="icon-intosana" viewBox="0 0 159 32">
<path fill="#006eb0" style="fill: var(--color1, #006eb0)" d="M76.465 22.182l-6.562 9.092c-0.144 0.246-0.338 0.448-0.57 0.597l-0.007 0.004c-0.166 0.081-0.362 0.129-0.569 0.129-0.041 0-0.082-0.002-0.123-0.006l0.005 0h-11.549l7.083-9.818h12.291zM73.433 9.818l6.562-9.092c0.144-0.246 0.338-0.448 0.57-0.597l0.007-0.004c0.167-0.082 0.363-0.129 0.57-0.129 0.041 0 0.081 0.002 0.121 0.005l-0.005-0h11.549l-7.083 9.818h-12.292z"></path>
<path fill="#ef4123" style="fill: var(--color2, #ef4123)" d="M77.874 20.707h-12.697c-1.047-0.019-2.047-0.187-2.99-0.485l0.075 0.020c-4.055-1.296-6.94-5.030-6.94-9.439 0-0.037 0-0.074 0.001-0.111l-0 0.006c-0.001-0.207 0.004-0.405 0.016-0.611 0.274-5.572 4.815-9.997 10.408-10.087l0.009-0h12.126c0.197 0.004 0.355 0.165 0.355 0.362 0 0.168-0.114 0.309-0.269 0.35l-0.003 0.001c-0.693 0.246-1.266 0.496-1.819 0.781l0.082-0.039c-0.474 0.274-0.914 0.48-1.352 0.78-2.626 1.798-4.351 4.748-4.442 8.105l-0 0.014c-0.004 0.105-0.007 0.229-0.007 0.354 0 2.663 1.089 5.072 2.845 6.806l0.001 0.001c0.347 0.34 0.723 0.654 1.121 0.939l0.029 0.020c1.014 0.646 2.187 1.168 3.436 1.504l0.088 0.020c0.161 0.038 0.279 0.181 0.279 0.351 0 0.194-0.154 0.353-0.347 0.36l-0.001 0h-0.004z"></path>
<path fill="#ef4123" style="fill: var(--color2, #ef4123)" d="M72.751 11.293h12.697c1.047 0.019 2.047 0.187 2.991 0.485l-0.075-0.020c4.055 1.296 6.94 5.031 6.94 9.439 0 0.037-0 0.074-0.001 0.111l0-0.006c0.001 0.207-0.004 0.405-0.016 0.611-0.275 5.572-4.815 9.997-10.408 10.087l-0.009 0h-12.126c-0.196-0.005-0.354-0.165-0.354-0.362 0-0.167 0.114-0.308 0.268-0.35l0.003-0.001c0.693-0.246 1.266-0.497 1.819-0.781l-0.083 0.039c0.474-0.273 0.914-0.48 1.352-0.779 2.627-1.798 4.351-4.748 4.442-8.105l0-0.014c0.005-0.117 0.008-0.254 0.008-0.392 0-3.178-1.566-5.991-3.969-7.707l-0.029-0.020c-1.013-0.646-2.186-1.168-3.435-1.504l-0.089-0.020c-0.161-0.038-0.279-0.181-0.279-0.351 0-0.194 0.154-0.353 0.347-0.36l0.001-0h0.003z"></path>
<path fill="#006eb0" style="fill: var(--color1, #006eb0)" d="M3.556 22.156c0 0.005 0 0.012 0 0.018 0 0.203-0.032 0.398-0.092 0.58l0.004-0.013c-0.233 0.724-0.901 1.239-1.69 1.239-0.808 0-1.489-0.541-1.702-1.28l-0.003-0.012c-0.047-0.173-0.074-0.372-0.074-0.577 0-0.034 0.001-0.067 0.002-0.101l-0 0.005v-12.020c-0.001-0.030-0.002-0.066-0.002-0.102 0-0.117 0.007-0.232 0.021-0.346l-0.001 0.014c0.124-0.869 0.864-1.53 1.757-1.53 0.789 0 1.457 0.515 1.688 1.227l0.004 0.013c0.056 0.169 0.089 0.365 0.089 0.567 0 0.006-0 0.013-0 0.019v-0.001 12.301zM16.827 22.945l-6.607-8.211v7.31q0.005 0.068 0.005 0.137c0 0.013 0.001 0.027 0.001 0.042 0 0.955-0.774 1.729-1.729 1.729s-1.729-0.774-1.729-1.729c0-0.015 0-0.030 0.001-0.044l-0 0.002c0-0.045 0.001-0.090 0.005-0.135v-12.092q-0.005-0.067-0.005-0.136c-0-0.006-0-0.013-0-0.020 0-0.959 0.771-1.738 1.727-1.749h0.001c0.439 0 0.838 0.166 1.14 0.439l-0.001-0.001c0.123 0.12 0.236 0.249 0.338 0.386l0.006 0.009 6.758 8.402v-7.329q-0.006-0.067-0.006-0.136c-0-0.010-0-0.022-0-0.034 0-0.955 0.774-1.729 1.729-1.729s1.729 0.774 1.729 1.729c0 0.012-0 0.024-0 0.036l0-0.002c0 0.046-0.002 0.091-0.005 0.136v12.088c0.003 0.045 0.005 0.091 0.005 0.137 0 0.006 0 0.013 0 0.020 0 0.959-0.772 1.738-1.728 1.749h-0.001c-0 0-0.001 0-0.001 0-0.336 0-0.65-0.098-0.913-0.267l0.007 0.004c-0.283-0.207-0.523-0.453-0.719-0.732l-0.007-0.010zM30.167 22.181c0 0.010 0 0.022 0 0.034 0 0.951-0.771 1.723-1.723 1.723s-1.723-0.771-1.723-1.723c0-0.012 0-0.024 0-0.036l-0 0.002c0-0.045-0.005-0.090-0.001-0.135v-10.463l-2.628 0.001c-0.958-0.024-1.725-0.806-1.725-1.767s0.767-1.743 1.723-1.767l0.002-0h8.793c0.958 0.024 1.725 0.806 1.725 1.767s-0.767 1.743-1.723 1.767l-0.002 0h-2.717l-0.001 10.597zM51.483 16.026c0 2.438-0.818 4.472-2.229 5.895s-3.416 2.239-5.79 2.239c-2.462 0-4.544-0.905-5.968-2.461-1.276-1.444-2.054-3.354-2.054-5.445 0-0.081 0.001-0.161 0.003-0.241l-0 0.012c0-2.255 0.69-4.17 1.901-5.58 1.417-1.649 3.546-2.607 6.118-2.607 2.358 0 4.338 0.796 5.74 2.19 1.447 1.437 2.279 3.51 2.279 5.998zM47.502 16.013c0.001-0.042 0.002-0.091 0.002-0.14 0-1.108-0.3-2.146-0.823-3.037l0.015 0.028c-0.644-1.063-1.795-1.763-3.109-1.763-0.043 0-0.086 0.001-0.129 0.002l0.006-0c-0.037-0.001-0.080-0.002-0.123-0.002-1.273 0-2.391 0.664-3.027 1.664l-0.009 0.015c-0.535 0.879-0.852 1.942-0.852 3.080 0 0.054 0.001 0.108 0.002 0.161l-0-0.008c-0.002 0.054-0.003 0.118-0.003 0.181 0 1.191 0.367 2.295 0.994 3.207l-0.012-0.019c0.663 0.892 1.714 1.463 2.898 1.463 0.047 0 0.093-0.001 0.139-0.003l-0.007 0c0.039 0.001 0.084 0.002 0.129 0.002 1.189 0 2.244-0.57 2.908-1.452l0.007-0.009c0.623-0.893 0.996-2.001 0.996-3.197 0-0.061-0.001-0.123-0.003-0.184l0 0.009z"></path>
<path fill="#ef4123" style="fill: var(--color2, #ef4123)" d="M99.528 21.448c-0-0.005-0-0.011-0-0.017 0-0.868 0.659-1.583 1.505-1.67l0.007-0.001c0.728-0.086 1.16 0.259 1.791 0.501 0.933 0.343 2.493 0.826 3.411 0.192 0.375-0.266 0.616-0.699 0.616-1.188 0-0.338-0.116-0.65-0.31-0.897l0.002 0.003c-0.386-0.491-1.274-0.831-1.829-1.050-1.249-0.496-2.562-0.762-3.515-1.575-1.136-0.97-1.517-2.582-1.233-4.023 0.266-1.403 1.14-2.56 2.331-3.205l0.024-0.012c1.253-0.677 3.158-0.736 4.551-0.484 0.757 0.136 1.851 0.419 2.393 1.036 0.249 0.285 0.402 0.66 0.402 1.071 0 0.521-0.245 0.986-0.626 1.284l-0.004 0.003c-0.855 0.655-1.557 0.109-2.413-0.121-0.628-0.169-1.682-0.305-2.288-0.106-0.487 0.169-0.831 0.624-0.831 1.159 0 0.489 0.287 0.912 0.702 1.108l0.007 0.003c1.525 0.667 3.489 0.977 4.735 2.051 1.032 0.904 1.681 2.225 1.681 3.698 0 0.893-0.238 1.73-0.655 2.451l0.013-0.024c-0.404 0.709-0.964 1.287-1.636 1.7l-0.020 0.012c-0.936 0.555-2.063 0.883-3.266 0.883-0.079 0-0.158-0.001-0.236-0.004l0.011 0c-0.073 0.002-0.16 0.004-0.246 0.004-1.435 0-2.786-0.362-3.965-1l0.044 0.022c-0.674-0.338-1.132-1.015-1.153-1.8l-0-0.003z"></path>
<path fill="#ef4123" style="fill: var(--color2, #ef4123)" d="M138.557 22.97l-6.608-8.212v7.31q0.005 0.068 0.005 0.137c0 0.013 0 0.027 0 0.042 0 0.955-0.774 1.729-1.729 1.729s-1.729-0.774-1.729-1.729c0-0.015 0-0.030 0.001-0.044l-0 0.002c0-0.045 0.002-0.090 0.005-0.135v-12.092q-0.005-0.067-0.005-0.135c-0-0.006-0-0.013-0-0.020 0-0.959 0.772-1.738 1.728-1.749h0.001c0.438 0 0.838 0.166 1.139 0.439l-0.001-0.001c0.123 0.12 0.236 0.249 0.338 0.386l0.006 0.009 6.757 8.402v-7.329q-0.005-0.067-0.005-0.136c-0-0.013-0-0.027-0-0.042 0-0.955 0.774-1.729 1.729-1.729s1.729 0.774 1.729 1.729c0 0.015-0 0.030-0.001 0.044l0-0.002c0 0.046-0.002 0.091-0.005 0.137v12.088c0.003 0.046 0.005 0.091 0.005 0.138 0 0.006 0 0.013 0 0.019 0 0.959-0.771 1.737-1.727 1.749h-0.001c-0 0-0.001 0-0.002 0-0.336 0-0.649-0.098-0.913-0.267l0.007 0.004c-0.283-0.207-0.523-0.453-0.719-0.732l-0.007-0.010z"></path>
<path fill="#ef4123" style="fill: var(--color2, #ef4123)" d="M112.19 21.622l3.614-10.021c0.573-1.719 1.344-3.808 3.437-3.825h0.053c2.094 0.017 2.864 2.106 3.437 3.825l3.614 10.021c0.014 0.037 0.027 0.073 0.038 0.112 0.048 0.152 0.076 0.327 0.076 0.509 0 0 0 0 0 0.001v-0c0 0.006 0 0.012 0 0.019 0 0.918-0.739 1.664-1.654 1.675h-0.001c-0.644-0.003-1.201-0.375-1.47-0.915l-0.004-0.010c-0.051-0.11-0.103-0.247-0.147-0.387l-0.007-0.026-0.702-1.985h-6.394l-0.719 1.985c-0.052 0.167-0.104 0.304-0.165 0.436l0.009-0.023c-0.274 0.549-0.83 0.921-1.474 0.925h-0c-0.917-0.011-1.655-0.757-1.655-1.675 0-0.007 0-0.013 0-0.020v0.001c0-0 0-0.001 0-0.002 0-0.181 0.028-0.356 0.080-0.52l-0.003 0.012c0.012-0.038 0.025-0.074 0.038-0.112zM121.339 17.478l-2.071-5.776-2.072 5.776h4.143zM144.267 21.622l3.614-10.021c0.573-1.719 1.344-3.808 3.438-3.825h0.052c2.094 0.017 2.865 2.106 3.438 3.825l3.614 10.021c0.014 0.037 0.026 0.073 0.038 0.111 0.049 0.152 0.077 0.328 0.077 0.51v0c0 0.006 0 0.012 0 0.019 0 0.918-0.739 1.663-1.654 1.675h-0.001c-0.644-0.003-1.201-0.375-1.47-0.915l-0.004-0.010c-0.050-0.109-0.103-0.246-0.147-0.387l-0.007-0.026-0.702-1.985h-6.395l-0.719 1.985c-0.051 0.167-0.104 0.304-0.164 0.436l0.009-0.023c-0.274 0.55-0.831 0.922-1.475 0.925h-0c-0.917-0.011-1.655-0.757-1.655-1.675 0-0.007 0-0.013 0-0.020v0.001c0-0.001 0-0.002 0-0.003 0-0.181 0.028-0.355 0.080-0.519l-0.003 0.012c0.012-0.038 0.025-0.074 0.038-0.112zM153.417 17.477l-2.072-5.776-2.072 5.776h4.142z"></path>
</symbol>
<symbol id="icon-kyivstar" viewBox="0 0 129 32">
<path fill="#fdda24" style="fill: var(--color3, #fdda24)" d="M66.175 3.978c-1.584 0-2.902 1.232-2.902 2.803 0 1.593 1.318 2.824 2.902 2.824 1.648 0 2.944-1.231 2.944-2.824 0-1.571-1.296-2.803-2.944-2.803zM73.711 3.978c-1.605 0-2.9 1.232-2.9 2.803 0 1.593 1.296 2.824 2.9 2.824 1.626 0 2.945-1.231 2.945-2.824 0-1.571-1.319-2.803-2.945-2.803z"></path>
<path fill="#2396fd" style="fill: var(--color4, #2396fd)" d="M91.167 11.030c-3.388 0-6.138 2.633-6.138 5.903s2.75 5.925 6.116 5.925c1.87 0 3.279-0.744 4.532-1.869 0.308-0.275 0.242-0.551 0.065-0.72l-1.298-1.233c-0.374-0.361-0.549-0.213-0.79 0-0.529 0.467-1.521 0.871-2.487 0.871-1.716 0-3.101-1.317-3.101-2.973 0-1.635 1.385-2.973 3.079-2.973 0.989 0 1.98 0.426 2.509 0.893 0.241 0.212 0.416 0.361 0.79 0l1.298-1.231c0.176-0.17 0.243-0.448-0.065-0.724-1.254-1.125-2.663-1.868-4.511-1.868zM43.464 11.364c-0.397 0-0.595 0.192-0.595 0.575v9.981c0 0.382 0.198 0.575 0.595 0.575h2.022c0.396 0 0.593-0.193 0.593-0.575v-3.632l3.362 3.823c0.198 0.235 0.396 0.384 0.682 0.384h2.945c0.374 0 0.505-0.362 0.307-0.638l-4.636-5.521 3.714-4.312c0.285-0.275 0.108-0.658-0.287-0.658h-2.79c-0.264 0-0.527 0.107-0.747 0.362l-2.55 3.23v-3.017c0-0.383-0.198-0.575-0.593-0.575zM55.099 11.364c-0.418 0-0.615 0.192-0.615 0.575v9.981c0 0.382 0.197 0.575 0.615 0.575h2.55l4.851-6.277v5.703c0 0.382 0.175 0.575 0.593 0.575h1.961c0.418 0 0.615-0.192 0.615-0.575v-9.981c0-0.382-0.197-0.575-0.615-0.575l-2.615 0.002-4.784 6.405v-5.832c0-0.382-0.175-0.575-0.593-0.575zM68.814 11.367c-0.418 0-0.615 0.191-0.615 0.573v9.981c0 0.382 0.197 0.575 0.615 0.575h2.154c0.418 0 0.593-0.192 0.593-0.575v-9.981c0-0.382-0.175-0.573-0.593-0.573zM74.856 11.367c-0.418 0-0.616 0.189-0.616 0.571v9.982c0 0.382 0.198 0.575 0.616 0.575h5.801c4.109 0 5.208-4.564 1.935-6.073 2.042-1.89 0.68-5.056-2.463-5.056zM97.158 11.367c-0.396 0-0.595 0.17-0.595 0.573v1.935c0 0.403 0.199 0.595 0.595 0.595h2.509v7.451c0 0.382 0.199 0.575 0.616 0.575h2.154c0.417 0 0.593-0.192 0.593-0.575v-7.451h2.509c0.394 0 0.593-0.192 0.593-0.595v-1.935c0-0.403-0.199-0.573-0.593-0.573zM109.969 11.367c-0.339 0-0.56 0.155-0.652 0.422l-3.947 10.151c-0.12 0.306 0.059 0.554 0.396 0.554h2.425c0.203 0 0.422-0.149 0.488-0.335l0.533-1.491h4.174l0.534 1.491c0.066 0.186 0.285 0.335 0.488 0.335h2.425c0.337 0 0.517-0.249 0.397-0.554l-3.95-10.151c-0.091-0.268-0.311-0.422-0.651-0.422zM118.939 11.367c-0.417 0-0.616 0.191-0.616 0.573v9.982c0 0.382 0.199 0.573 0.616 0.573h2.154c0.417 0 0.592-0.191 0.592-0.573v-2.65h1.848c2.593 0 4.57-1.375 4.57-3.86 0-2.489-2.020-4.045-4.438-4.045zM77.36 13.851h2.087c1.341 0 1.362 1.72 0 1.72h-2.087zM121.684 13.938h1.694c2.263 0 2.417 2.869 0.043 2.869h-1.737zM111.299 14.848h0.003l1.172 3.273h-2.348zM77.36 17.93h2.768c1.692 0 1.801 2.081 0 2.081h-2.768z"></path>
<path fill="#2396fd" style="fill: var(--color4, #2396fd)" d="M17.138 0.896c-1.154 0-2.088 0.908-2.088 2.028v7.44c0 1.121 0.935 2.029 2.088 2.029s2.087-0.909 2.087-2.029v-7.44c0-1.12-0.934-2.028-2.087-2.028zM2.816 10.887c-0.811 0.068-1.54 0.595-1.807 1.394-0.356 1.066 0.243 2.211 1.34 2.557l7.28 2.3c1.097 0.346 2.275-0.237 2.632-1.303s-0.244-2.211-1.341-2.557l-7.28-2.298c-0.274-0.087-0.553-0.116-0.823-0.093zM31.46 10.889c-0.27-0.023-0.549 0.005-0.823 0.092l-7.28 2.3c-1.096 0.346-1.696 1.492-1.34 2.557s1.534 1.648 2.63 1.301l7.28-2.298c1.096-0.346 1.697-1.492 1.34-2.557-0.267-0.799-0.997-1.326-1.807-1.394zM12.964 21.028c-0.67-0.022-1.339 0.269-1.762 0.835l-4.498 6.020c-0.678 0.907-0.47 2.177 0.463 2.835 0.932 0.658 2.239 0.455 2.916-0.45l4.498-6.021c0.678-0.906 0.469-2.173-0.464-2.832-0.349-0.247-0.75-0.373-1.152-0.387zM21.313 21.028c-0.402 0.013-0.804 0.14-1.154 0.387-0.933 0.659-1.14 1.926-0.463 2.832l4.498 6.021c0.677 0.906 1.984 1.108 2.916 0.45 0.933-0.658 1.14-1.928 0.463-2.835l-4.498-6.020c-0.423-0.567-1.092-0.858-1.762-0.835z"></path>
</symbol>
<symbol id="icon-rabota" viewBox="0 0 32 32">
<path d="M16 0c-8.837 0-16 7.163-16 16s7.163 16 16 16c8.837 0 16-7.163 16-16 0.002-4.244-1.683-8.315-4.684-11.316s-7.072-4.686-11.316-4.684v0zM23.461 14.066c-6.107 0-7.13 0.080-7.13 2.349v7.572h-5.941v-15.973h5.914v2.626c1.517-1.728 3.725-2.69 6.024-2.626h1.133v6.051z"></path>
</symbol>
<symbol id="icon-mastercard" viewBox="0 0 52 32">
<path fill="#ff5f00" style="fill: var(--color5, #ff5f00)" d="M18.889 3.422h14v25.156h-14v-25.156z"></path>
<path fill="#eb001b" style="fill: var(--color6, #eb001b)" d="M19.778 16c0-4.889 2.267-9.556 6.089-12.578-6.933-5.467-16.978-4.267-22.444 2.711-5.467 6.933-4.267 16.978 2.711 22.444 5.822 4.578 13.956 4.578 19.778 0-3.867-3.022-6.133-7.689-6.133-12.578z"></path>
<path fill="#f79e1b" style="fill: var(--color7, #f79e1b)" d="M51.778 16c0 8.844-7.156 16-16 16-3.6 0-7.067-1.2-9.867-3.422 6.933-5.467 8.133-15.511 2.667-22.489-0.8-0.978-1.689-1.911-2.667-2.667 6.933-5.467 17.022-4.267 22.444 2.711 2.222 2.8 3.422 6.267 3.422 9.867z"></path>
<path fill="#f79e1b" style="fill: var(--color7, #f79e1b)" d="M50.267 25.911v-0.533h0.222v-0.089h-0.533v0.089h0.222v0.533h0.089zM51.289 25.911v-0.622h-0.178l-0.178 0.444-0.178-0.444h-0.178v0.622h0.133v-0.489l0.178 0.4h0.133l0.178-0.4v0.489h0.089z"></path>
</symbol>
<symbol id="icon-global" viewBox="0 0 32 32">
<path fill="#c4c6c8" style="fill: var(--color8, #c4c6c8)" d="M9.038 30.256c-0.048 0-0.112 0.032-0.16 0.032-3.104-1.536-5.632-4.080-7.184-7.184 0-0.048 0.032-0.112 0.032-0.16 1.952 0.576 3.968 1.008 5.968 1.344 0.352 2.016 0.768 4.016 1.344 5.968z"></path>
<path fill="#c4c6c8" style="fill: var(--color8, #c4c6c8)" d="M30.302 23.12c-1.584 3.184-4.224 5.76-7.44 7.312 0.608-2.032 1.12-4.080 1.456-6.144 2.016-0.336 4-0.768 5.952-1.344-0.016 0.064 0.032 0.128 0.032 0.176z"></path>
<path fill="#c4c6c8" style="fill: var(--color8, #c4c6c8)" d="M30.43 9.137c-2.016-0.608-4.048-1.104-6.112-1.456-0.336-2.064-0.832-4.112-1.456-6.112 3.312 1.584 5.984 4.256 7.568 7.568z"></path>
<path fill="#c4c6c8" style="fill: var(--color8, #c4c6c8)" d="M9.041 1.742c-0.576 1.952-0.992 3.936-1.328 5.952-2.064 0.32-4.112 0.832-6.144 1.44 1.552-3.216 4.128-5.856 7.312-7.44 0.048 0 0.112 0.048 0.16 0.048z"></path>
<path fill="#c4c6c8" style="fill: var(--color8, #c4c6c8)" d="M21.587 7.344c-3.712-0.416-7.456-0.416-11.168 0 0.4-2.192 0.912-4.384 1.632-6.496 0.032-0.128 0.016-0.224 0.032-0.352 1.264-0.304 2.56-0.496 3.92-0.496 1.344 0 2.656 0.192 3.904 0.496 0.016 0.128 0.016 0.224 0.048 0.352 0.72 2.128 1.232 4.304 1.632 6.496z"></path>
<path fill="#c4c6c8" style="fill: var(--color8, #c4c6c8)" d="M7.344 21.587c-2.208-0.4-4.384-0.912-6.496-1.632-0.128-0.032-0.224-0.016-0.352-0.032-0.304-1.264-0.496-2.56-0.496-3.92 0-1.344 0.192-2.656 0.496-3.904 0.128-0.016 0.224-0.016 0.352-0.048 2.128-0.704 4.288-1.232 6.496-1.632-0.4 3.712-0.4 7.456 0 11.168z"></path>
<path fill="#c4c6c8" style="fill: var(--color8, #c4c6c8)" d="M32 16.003c0 1.36-0.192 2.656-0.496 3.92-0.128 0.016-0.224 0-0.352 0.032-2.128 0.704-4.304 1.232-6.496 1.632 0.416-3.712 0.416-7.456 0-11.168 2.192 0.4 4.384 0.912 6.496 1.632 0.128 0.032 0.224 0.048 0.352 0.048 0.304 1.264 0.496 2.56 0.496 3.904z"></path>
<path fill="#c4c6c8" style="fill: var(--color8, #c4c6c8)" d="M21.587 24.656c-0.4 2.208-0.912 4.384-1.632 6.496-0.032 0.128-0.032 0.224-0.048 0.352-1.248 0.304-2.56 0.496-3.904 0.496-1.36 0-2.656-0.192-3.92-0.496-0.016-0.128 0-0.224-0.032-0.352-0.704-2.128-1.232-4.288-1.632-6.496 1.856 0.208 3.712 0.352 5.584 0.352s3.744-0.144 5.584-0.352z"></path>
<path fill="#c4c6c8" style="fill: var(--color8, #c4c6c8)" d="M22.021 22.021c-4.002 0.505-8.041 0.505-12.043 0-0.505-4.002-0.505-8.041 0-12.043 4.002-0.505 8.041-0.505 12.043 0 0.505 4.002 0.505 8.041 0 12.043z"></path>
</symbol>
<symbol id="icon-star" viewBox="0 0 32 32">
<path fill="#c4c6c8" style="fill: var(--color8, #c4c6c8)" d="M21.623 5.605l2.156 4.313c0.291 0.596 1.070 1.162 1.728 1.285l3.9 0.642c2.493 0.413 3.074 2.218 1.285 4.022l-3.043 3.043c-0.505 0.505-0.795 1.499-0.627 2.217l0.872 3.762c0.688 2.967-0.902 4.129-3.517 2.569l-3.655-2.172c-0.658-0.398-1.759-0.398-2.416 0l-3.655 2.172c-2.615 1.545-4.206 0.398-3.517-2.569l0.872-3.762c0.138-0.734-0.153-1.728-0.658-2.233l-3.043-3.043c-1.789-1.789-1.208-3.594 1.285-4.022l3.9-0.642c0.658-0.107 1.438-0.688 1.728-1.285l2.156-4.313c1.178-2.325 3.074-2.325 4.251 0.015z"></path>
<path fill="#c4c6c8" style="fill: var(--color8, #c4c6c8)" d="M10.323 6.429h-9.176c-0.627 0-1.147-0.52-1.147-1.147s0.52-1.147 1.147-1.147h9.176c0.627 0 1.147 0.52 1.147 1.147s-0.52 1.147-1.147 1.147z"></path>
<path fill="#c4c6c8" style="fill: var(--color8, #c4c6c8)" d="M5.735 27.839h-4.588c-0.627 0-1.147-0.52-1.147-1.147s0.52-1.147 1.147-1.147h4.588c0.627 0 1.147 0.52 1.147 1.147s-0.52 1.147-1.147 1.147z"></path>
<path fill="#c4c6c8" style="fill: var(--color8, #c4c6c8)" d="M2.676 17.134h-1.529c-0.627 0-1.147-0.52-1.147-1.147s0.52-1.147 1.147-1.147h1.529c0.627 0 1.147 0.52 1.147 1.147s-0.52 1.147-1.147 1.147z"></path>
</symbol>
<symbol id="icon-wallet" viewBox="0 0 32 32">
<path fill="#c4c6c8" style="fill: var(--color8, #c4c6c8)" d="M20.344 3.048v6.095h-2.406v-6.095c0-0.433-0.385-0.642-0.642-0.642-0.080 0-0.16 0.016-0.241 0.048l-12.72 4.796c-0.85 0.321-1.396 1.123-1.396 2.037v1.075c-1.46 1.091-2.406 2.839-2.406 4.812v-5.887c0-1.909 1.171-3.609 2.951-4.283l12.736-4.812c0.353-0.128 0.722-0.193 1.075-0.193 1.604 0 3.048 1.299 3.048 3.048z"></path>
<path fill="#c4c6c8" style="fill: var(--color8, #c4c6c8)" d="M31.012 19.969v1.604c0 0.433-0.337 0.786-0.786 0.802h-2.342c-0.85 0-1.62-0.626-1.684-1.46-0.048-0.497 0.144-0.962 0.465-1.283 0.289-0.305 0.69-0.465 1.123-0.465h2.422c0.465 0.016 0.802 0.369 0.802 0.802z"></path>
<path fill="#c4c6c8" style="fill: var(--color8, #c4c6c8)" d="M27.77 17.483h1.636c0.882 0 1.604-0.722 1.604-1.604v-0.706c0-3.32-2.711-6.031-6.031-6.031h-18.415c-1.363 0-2.615 0.449-3.625 1.219-1.46 1.091-2.406 2.839-2.406 4.812v10.795c0 3.32 2.711 6.031 6.031 6.031h18.415c3.32 0 6.031-2.711 6.031-6.031v-0.305c0-0.882-0.722-1.604-1.604-1.604h-1.396c-1.54 0-3.016-0.946-3.417-2.438-0.337-1.219 0.064-2.39 0.866-3.176 0.593-0.61 1.412-0.962 2.31-0.962zM18.98 17.162h-11.228c-0.658 0-1.203-0.545-1.203-1.203s0.545-1.203 1.203-1.203h11.228c0.658 0 1.203 0.545 1.203 1.203s-0.545 1.203-1.203 1.203z"></path>
</symbol>
<symbol id="icon-calendar" viewBox="0 0 32 32">
<path fill="#c4c6c8" style="fill: var(--color8, #c4c6c8)" d="M23.072 3.562v-2.406c0-0.632-0.524-1.157-1.157-1.157s-1.157 0.524-1.157 1.157v2.313h-10.024v-2.313c0-0.632-0.524-1.157-1.157-1.157s-1.157 0.524-1.157 1.157v2.406c-4.164 0.386-6.184 2.868-6.493 6.554-0.031 0.447 0.339 0.817 0.771 0.817h26.094c0.447 0 0.817-0.386 0.771-0.817-0.308-3.686-2.329-6.169-6.493-6.554z"></path>
<path fill="#c4c6c8" style="fill: var(--color8, #c4c6c8)" d="M28.084 13.247h-24.675c-0.848 0-1.542 0.694-1.542 1.542v9.5c0 4.627 2.313 7.711 7.711 7.711h12.337c5.398 0 7.711-3.084 7.711-7.711v-9.5c0-0.848-0.694-1.542-1.542-1.542zM11.444 26.155c-0.077 0.062-0.154 0.139-0.231 0.185-0.093 0.062-0.185 0.108-0.278 0.139-0.093 0.046-0.185 0.077-0.278 0.093-0.108 0.015-0.2 0.031-0.308 0.031-0.2 0-0.401-0.046-0.586-0.123-0.2-0.077-0.355-0.185-0.509-0.324-0.278-0.293-0.447-0.694-0.447-1.095s0.17-0.802 0.447-1.095c0.154-0.139 0.308-0.247 0.509-0.324 0.278-0.123 0.586-0.154 0.894-0.092 0.093 0.015 0.185 0.046 0.278 0.092 0.093 0.031 0.185 0.077 0.278 0.139 0.077 0.062 0.154 0.123 0.231 0.185 0.278 0.293 0.447 0.694 0.447 1.095s-0.17 0.802-0.447 1.095zM11.444 20.758c-0.293 0.278-0.694 0.447-1.095 0.447s-0.802-0.17-1.095-0.447c-0.278-0.293-0.447-0.694-0.447-1.095s0.17-0.802 0.447-1.095c0.432-0.432 1.11-0.571 1.681-0.324 0.2 0.077 0.37 0.185 0.509 0.324 0.278 0.293 0.447 0.694 0.447 1.095s-0.17 0.802-0.447 1.095zM16.841 26.155c-0.293 0.278-0.694 0.447-1.095 0.447s-0.802-0.17-1.095-0.447c-0.278-0.293-0.447-0.694-0.447-1.095s0.17-0.802 0.447-1.095c0.571-0.571 1.619-0.571 2.19 0 0.278 0.293 0.447 0.694 0.447 1.095s-0.17 0.802-0.447 1.095zM16.841 20.758c-0.077 0.062-0.154 0.123-0.231 0.185-0.093 0.062-0.185 0.108-0.278 0.139-0.093 0.046-0.185 0.077-0.278 0.093-0.108 0.015-0.2 0.031-0.308 0.031-0.401 0-0.802-0.17-1.095-0.447-0.278-0.293-0.447-0.694-0.447-1.095s0.17-0.802 0.447-1.095c0.139-0.139 0.308-0.247 0.509-0.324 0.571-0.247 1.249-0.108 1.681 0.324 0.278 0.293 0.447 0.694 0.447 1.095s-0.17 0.802-0.447 1.095zM22.239 26.155c-0.293 0.278-0.694 0.447-1.095 0.447s-0.802-0.17-1.095-0.447c-0.278-0.293-0.447-0.694-0.447-1.095s0.17-0.802 0.447-1.095c0.571-0.571 1.619-0.571 2.19 0 0.278 0.293 0.447 0.694 0.447 1.095s-0.17 0.802-0.447 1.095zM22.239 20.758c-0.077 0.062-0.154 0.123-0.231 0.185-0.093 0.062-0.185 0.108-0.278 0.139-0.093 0.046-0.185 0.077-0.278 0.093-0.108 0.015-0.216 0.031-0.308 0.031-0.401 0-0.802-0.17-1.095-0.447-0.278-0.293-0.447-0.694-0.447-1.095s0.17-0.802 0.447-1.095c0.154-0.139 0.308-0.247 0.509-0.324 0.278-0.123 0.586-0.154 0.894-0.093 0.093 0.015 0.185 0.046 0.278 0.093 0.093 0.031 0.185 0.077 0.278 0.139l0.231 0.185c0.278 0.293 0.447 0.694 0.447 1.095s-0.17 0.802-0.447 1.095z"></path>
</symbol>
<symbol id="icon-teacher" viewBox="0 0 32 32">
<path fill="#c4c6c8" style="fill: var(--color8, #c4c6c8)" d="M23.591 21.823c1.072-0.704 2.479 0.064 2.479 1.344v2.063c0 2.031-1.584 4.207-3.487 4.846l-5.102 1.695c-0.896 0.304-2.351 0.304-3.231 0l-5.102-1.695c-1.919-0.64-3.487-2.815-3.487-4.846v-2.079c0-1.264 1.408-2.031 2.463-1.344l3.295 2.143c1.264 0.848 2.863 1.264 4.463 1.264s3.199-0.416 4.462-1.264l3.247-2.127z"></path>
<path fill="#c4c6c8" style="fill: var(--color8, #c4c6c8)" d="M28.627 7.138l-9.581-6.286c-1.727-1.136-4.575-1.136-6.302 0l-9.629 6.286c-3.087 1.999-3.087 6.526 0 8.541l2.559 1.663 7.070 4.606c1.727 1.136 4.575 1.136 6.302 0l9.213-6.046v4.894c0 0.656 0.544 1.2 1.2 1.2s1.2-0.544 1.2-1.2v-7.869c0.64-2.063-0.016-4.463-2.031-5.79z"></path>
</symbol>
<symbol id="icon-profile" viewBox="0 0 32 32">
<path fill="#c4c6c8" style="fill: var(--color8, #c4c6c8)" d="M11.078 0.262c-4.123 0-7.476 3.352-7.476 7.476 0 4.045 3.163 7.318 7.287 7.46 0.126-0.016 0.252-0.016 0.346 0h0.11c4.029-0.142 7.192-3.415 7.208-7.46 0-4.123-3.352-7.476-7.476-7.476z"></path>
<path fill="#c4c6c8" style="fill: var(--color8, #c4c6c8)" d="M19.075 19.383c-4.391-2.927-11.552-2.927-15.975 0-1.999 1.338-3.1 3.148-3.1 5.084s1.102 3.73 3.085 5.052c2.203 1.479 5.099 2.219 7.995 2.219s5.792-0.74 7.995-2.219c1.983-1.338 3.085-3.132 3.085-5.084-0.016-1.936-1.102-3.73-3.085-5.052z"></path>
<path fill="#c4c6c8" style="fill: var(--color8, #c4c6c8)" d="M28.374 8.664c0.252 3.053-1.92 5.729-4.926 6.091-0.016 0-0.016 0-0.031 0h-0.047c-0.094 0-0.189 0-0.268 0.031-1.527 0.079-2.927-0.409-3.982-1.306 1.621-1.448 2.55-3.62 2.361-5.981-0.11-1.275-0.551-2.439-1.212-3.431 0.598-0.299 1.291-0.488 1.999-0.551 3.085-0.268 5.839 2.030 6.107 5.147z"></path>
<path fill="#c4c6c8" style="fill: var(--color8, #c4c6c8)" d="M31.52 23.226c-0.126 1.527-1.102 2.849-2.739 3.746-1.574 0.866-3.557 1.275-5.524 1.228 1.133-1.023 1.794-2.298 1.92-3.651 0.157-1.952-0.771-3.824-2.628-5.32-1.054-0.834-2.282-1.495-3.62-1.983 3.478-1.007 7.854-0.331 10.545 1.841 1.448 1.165 2.188 2.628 2.046 4.139z"></path>
</symbol>
<symbol id="icon-linkedin" viewBox="0 0 32 32">
<path fill="#069" style="fill: var(--color9, #069)" d="M23.577 12.369c0-0.335 0.279-0.607 0.622-0.607h7.178c0.344 0 0.622 0.272 0.622 0.607v7.262c0 0.335-0.279 0.607-0.622 0.607h-7.178c-0.344 0-0.622-0.272-0.622-0.607v-7.262z"></path>
<path fill="#000" style="fill: var(--color10, #000)" d="M-0 18.862h3.515v-1.154h-2.243v-4.403h-1.272v5.557zM5.294 18.862v-3.827h-1.272v3.827h1.272zM4.659 14.512c0.444 0 0.72-0.294 0.72-0.661-0.008-0.376-0.276-0.661-0.711-0.661s-0.72 0.286-0.72 0.661c0 0.367 0.276 0.661 0.703 0.661h0.008zM5.885 18.862h1.272v-2.137c0-0.114 0.008-0.229 0.042-0.31 0.092-0.229 0.301-0.465 0.653-0.465 0.46 0 0.645 0.351 0.645 0.865v2.048h1.272v-2.194c0-1.176-0.628-1.723-1.465-1.723-0.686 0-0.988 0.384-1.155 0.645h0.009v-0.555h-1.272c0.017 0.359 0 3.827 0 3.827zM11.563 13.305h-1.272v5.557h1.272v-1.241l0.318-0.4 0.996 1.641h1.565l-1.674-2.376 1.464-1.616h-1.531s-1.046 1.446-1.138 1.618v-3.182z"></path>
<path fill="#000" style="fill: var(--color10, #000)" d="M17.844 17.266c0.017-0.098 0.042-0.287 0.042-0.5 0-0.989-0.502-1.994-1.825-1.994-1.414 0-2.067 1.119-2.067 2.133 0 1.255 0.795 2.038 2.184 2.038 0.552 0 1.063-0.081 1.481-0.253l-0.167-0.84c-0.343 0.114-0.695 0.171-1.13 0.171-0.594 0-1.113-0.244-1.155-0.764l2.636 0.008zM15.199 16.405c0.033-0.327 0.251-0.809 0.795-0.809 0.577 0 0.711 0.514 0.711 0.809h-1.506zM21.026 13.305v1.924h-0.017c-0.184-0.269-0.569-0.449-1.079-0.449-0.979 0-1.841 0.784-1.833 2.123 0 1.241 0.778 2.049 1.749 2.049 0.527 0 1.029-0.229 1.281-0.67h0.025l0.050 0.58h1.13c-0.017-0.269-0.034-0.735-0.034-1.192v-4.365h-1.272zM21.026 17.090c0 0.098-0.008 0.196-0.025 0.277-0.075 0.351-0.376 0.596-0.745 0.596-0.527 0-0.87-0.424-0.87-1.094 0-0.629 0.293-1.135 0.879-1.135 0.393 0 0.669 0.269 0.745 0.604 0.017 0.074 0.017 0.155 0.017 0.229v0.522z"></path>
<path fill="#fff" style="fill: var(--color11, #fff)" d="M26.13 18.857v-3.827h-1.272v3.827h1.272zM25.495 14.508c0.444 0 0.72-0.294 0.72-0.661-0.008-0.376-0.276-0.661-0.711-0.661s-0.72 0.286-0.72 0.661c0 0.367 0.276 0.661 0.703 0.661h0.008zM26.835 18.857h1.272v-2.137c0-0.114 0.008-0.229 0.042-0.31 0.092-0.229 0.301-0.465 0.653-0.465 0.46 0 0.644 0.351 0.644 0.866v2.047h1.272v-2.194c0-1.176-0.628-1.723-1.464-1.723-0.686 0-0.988 0.383-1.155 0.645h0.008v-0.555h-1.272c0.017 0.359-0 3.827-0 3.827z"></path>
</symbol>
<symbol id="icon-privat24" viewBox="0 0 104 32">
<path fill="#000" style="fill: var(--color10, #000)" d="M16.55 0.39v0c8.62 0 15.61 6.99 15.61 15.61v0c0 8.62-6.99 15.61-15.61 15.61v0c-8.62 0-15.61-6.99-15.61-15.61v0c0-8.62 6.99-15.61 15.61-15.61z"></path>
<path fill="#8dc641" style="fill: var(--color12, #8dc641)" d="M16.55 0.29c-8.67 0-15.71 7.030-15.71 15.71s7.030 15.71 15.71 15.71 15.71-7.030 15.71-15.71-7.030-15.71-15.71-15.71zM16.55 29.98c-7.72 0-13.98-6.26-13.98-13.98s6.26-13.98 13.98-13.98 13.98 6.26 13.98 13.98-6.26 13.98-13.98 13.98z"></path>
<path fill="#fff" style="fill: var(--color11, #fff)" d="M22.040 12.43l-3.5 5.19h3.5v-5.19zM23.36 10.33v7.3h1.54v1.32h-1.54v2.73h-1.33v-2.73h-4.95v-1.42l4.99-7.19 1.29-0.010zM15.62 20.35v1.32h-7.42v-0.040c0.070-1.24 0.39-2.15 1.010-2.9 0.5-0.62 1.11-1.080 2.36-1.86 0 0 0.44-0.28 0.57-0.36 0.67-0.43 1.1-0.77 1.45-1.16 0.43-0.5 0.65-1.040 0.65-1.68 0-1.24-0.88-2.090-2.14-2.090-1.47 0-2.22 1.12-2.26 2.79v0.030h-1.32v-0.030l-0.010-0.3c0-2.24 1.46-3.74 3.66-3.74 2.15 0 3.55 1.3 3.55 3.31 0 1.030-0.37 1.86-1.080 2.59-0.53 0.56-1.080 0.93-2.31 1.68-0.020 0.010-0.030 0.020-0.050 0.030-0.060 0.030-0.33 0.19-0.4 0.24-0.59 0.35-0.95 0.6-1.27 0.9-0.39 0.37-0.65 0.78-0.77 1.26h5.78v0.010z"></path>
<path fill="#000" style="fill: var(--color10, #000)" d="M40.38 9.67h5.23c1.3 0 2.32 0.31 3.070 0.92 0.75 0.62 1.13 1.53 1.13 2.75 0 1.15-0.35 2.060-1.050 2.73s-1.65 1.010-2.86 1.010h-3.4v4.64h-2.12v-12.050zM42.5 11.44v3.95h2.95c1.54 0 2.3-0.66 2.3-1.98 0-1.31-0.83-1.96-2.49-1.96l-2.76-0.010z"></path>
<path fill="#000" style="fill: var(--color10, #000)" d="M56.090 12.82v1.85c-0.34-0.030-0.56-0.050-0.68-0.050-1.68 0-2.52 1.090-2.52 3.27v3.84h-1.91v-8.74h1.81v1.74c0.62-1.3 1.6-1.95 2.93-1.95l0.37 0.040z"></path>
<path fill="#000" style="fill: var(--color10, #000)" d="M59.24 9.62v1.9h-1.93v-1.9h1.93zM59.24 12.99v8.74h-1.93v-8.74h1.93z"></path>
<path fill="#000" style="fill: var(--color10, #000)" d="M60.61 12.99h2.1l2.24 6.72 2.15-6.72h2l-3.13 8.76h-2.17l-3.19-8.76z"></path>
<path fill="#000" style="fill: var(--color10, #000)" d="M69.76 15.69c0.2-1.98 1.48-2.96 3.83-2.96 1.090 0 1.97 0.21 2.62 0.64s0.97 1.1 0.97 2v4.43c0 0.25 0.030 0.42 0.090 0.51s0.18 0.14 0.36 0.14c0.14 0 0.28-0.010 0.44-0.030v1.36c-0.5 0.12-0.91 0.19-1.25 0.19-0.82 0-1.3-0.35-1.42-1.050-0.73 0.7-1.76 1.050-3.070 1.050-0.9 0-1.62-0.23-2.15-0.7s-0.8-1.1-0.8-1.91c0-0.25 0.030-0.48 0.080-0.69 0.060-0.21 0.12-0.4 0.2-0.56 0.070-0.16 0.19-0.3 0.36-0.44 0.16-0.14 0.3-0.25 0.41-0.34s0.28-0.17 0.53-0.25c0.24-0.080 0.42-0.14 0.54-0.18s0.32-0.080 0.62-0.13c0.29-0.040 0.49-0.080 0.58-0.090 0.1-0.020 0.3-0.040 0.6-0.080 0.69-0.090 1.16-0.17 1.41-0.23s0.42-0.16 0.51-0.28c0.080-0.090 0.12-0.3 0.12-0.63 0-0.88-0.6-1.32-1.8-1.32-0.63 0-1.090 0.12-1.39 0.36-0.29 0.24-0.48 0.64-0.56 1.2h-1.83v-0.010zM75.31 17.35c-0.15 0.080-0.32 0.15-0.51 0.21s-0.35 0.1-0.47 0.12-0.3 0.040-0.56 0.080c-0.25 0.030-0.42 0.060-0.5 0.070-0.24 0.030-0.42 0.070-0.56 0.090-0.14 0.030-0.3 0.080-0.5 0.14-0.2 0.070-0.35 0.15-0.46 0.25s-0.2 0.23-0.28 0.39c-0.080 0.16-0.12 0.36-0.12 0.58 0 0.42 0.14 0.74 0.41 0.96 0.28 0.23 0.66 0.34 1.16 0.34 0.86 0 1.52-0.23 1.98-0.69 0.26-0.26 0.39-0.76 0.39-1.51v-1.030h0.020z"></path>
<path fill="#000" style="fill: var(--color10, #000)" d="M83.61 12.99v1.41h-1.76v4.6c0 0.27 0.010 0.46 0.020 0.57s0.040 0.23 0.1 0.36 0.16 0.22 0.3 0.26c0.14 0.050 0.34 0.070 0.58 0.070 0.32 0 0.57-0.010 0.76-0.030v1.52c-0.38 0.040-0.82 0.070-1.3 0.070-0.34 0-0.64-0.030-0.89-0.080s-0.47-0.11-0.64-0.18-0.31-0.18-0.42-0.35c-0.11-0.16-0.2-0.3-0.26-0.41s-0.11-0.3-0.14-0.57c-0.030-0.27-0.040-0.48-0.040-0.62s0-0.39 0-0.74c0-0.040 0-0.080 0-0.11s0-0.060 0-0.1 0-0.080 0-0.11v-4.15h-1.46v-1.41h1.46v-2.63h1.93v2.63h1.76z"></path>
<path fill="#000" style="fill: var(--color10, #000)" d="M93.76 20.020v1.71h-8.090c0.010-0.53 0.080-1.020 0.22-1.46s0.29-0.82 0.47-1.13c0.17-0.31 0.43-0.63 0.78-0.95 0.34-0.32 0.65-0.59 0.93-0.8s0.66-0.48 1.14-0.8c0.030-0.020 0.2-0.13 0.5-0.33s0.48-0.32 0.55-0.37 0.22-0.17 0.46-0.36c0.24-0.19 0.39-0.34 0.47-0.45 0.070-0.11 0.17-0.27 0.3-0.46s0.22-0.39 0.26-0.58c0.040-0.2 0.070-0.41 0.070-0.63 0-0.62-0.17-1.11-0.52-1.46-0.34-0.36-0.81-0.53-1.4-0.53-0.34 0-0.63 0.050-0.88 0.16s-0.44 0.25-0.58 0.41c-0.14 0.17-0.26 0.39-0.35 0.65-0.090 0.27-0.15 0.52-0.18 0.75-0.030 0.24-0.050 0.51-0.060 0.83h-1.88v-0.3c0-1.28 0.36-2.29 1.080-3.040s1.69-1.13 2.9-1.13c1.15 0 2.080 0.32 2.78 0.97s1.050 1.51 1.050 2.58c0 0.43-0.070 0.84-0.2 1.22-0.14 0.38-0.28 0.69-0.43 0.93s-0.42 0.51-0.79 0.83-0.65 0.54-0.83 0.66c-0.18 0.12-0.51 0.35-1 0.68-1.41 0.91-2.26 1.71-2.54 2.39h5.77v0.010z"></path>
<path fill="#000" style="fill: var(--color10, #000)" d="M102.96 17.29v1.63h-1.51v2.81h-1.86l-0.020-2.81h-5.030v-1.91l5.080-7.23h1.83v7.52l1.51-0.010zM99.6 17.29v-5.13l-3.47 5.13h3.47z"></path>
</symbol>
<symbol id="icon-facebook" viewBox="0 0 32 32">
<path d="M19 6h5v-6h-5c-3.86 0-7 3.14-7 7v3h-4v6h4v16h6v-16h5l1-6h-6v-3c0-0.542 0.458-1 1-1z"></path>
</symbol>
<symbol id="icon-instagram" viewBox="0 0 32 32">
<path d="M16 2.881c4.275 0 4.781 0.019 6.462 0.094 1.563 0.069 2.406 0.331 2.969 0.55 0.744 0.288 1.281 0.638 1.837 1.194 0.563 0.563 0.906 1.094 1.2 1.838 0.219 0.563 0.481 1.412 0.55 2.969 0.075 1.688 0.094 2.194 0.094 6.463s-0.019 4.781-0.094 6.463c-0.069 1.563-0.331 2.406-0.55 2.969-0.288 0.744-0.637 1.281-1.194 1.837-0.563 0.563-1.094 0.906-1.837 1.2-0.563 0.219-1.413 0.481-2.969 0.55-1.688 0.075-2.194 0.094-6.463 0.094s-4.781-0.019-6.463-0.094c-1.563-0.069-2.406-0.331-2.969-0.55-0.744-0.288-1.281-0.637-1.838-1.194-0.563-0.563-0.906-1.094-1.2-1.837-0.219-0.563-0.481-1.413-0.55-2.969-0.075-1.688-0.094-2.194-0.094-6.463s0.019-4.781 0.094-6.463c0.069-1.563 0.331-2.406 0.55-2.969 0.288-0.744 0.638-1.281 1.194-1.838 0.563-0.563 1.094-0.906 1.838-1.2 0.563-0.219 1.412-0.481 2.969-0.55 1.681-0.075 2.188-0.094 6.463-0.094zM16 0c-4.344 0-4.887 0.019-6.594 0.094-1.7 0.075-2.869 0.35-3.881 0.744-1.056 0.412-1.95 0.956-2.837 1.85-0.894 0.888-1.438 1.781-1.85 2.831-0.394 1.019-0.669 2.181-0.744 3.881-0.075 1.713-0.094 2.256-0.094 6.6s0.019 4.887 0.094 6.594c0.075 1.7 0.35 2.869 0.744 3.881 0.413 1.056 0.956 1.95 1.85 2.837 0.887 0.887 1.781 1.438 2.831 1.844 1.019 0.394 2.181 0.669 3.881 0.744 1.706 0.075 2.25 0.094 6.594 0.094s4.888-0.019 6.594-0.094c1.7-0.075 2.869-0.35 3.881-0.744 1.050-0.406 1.944-0.956 2.831-1.844s1.438-1.781 1.844-2.831c0.394-1.019 0.669-2.181 0.744-3.881 0.075-1.706 0.094-2.25 0.094-6.594s-0.019-4.887-0.094-6.594c-0.075-1.7-0.35-2.869-0.744-3.881-0.394-1.063-0.938-1.956-1.831-2.844-0.887-0.887-1.781-1.438-2.831-1.844-1.019-0.394-2.181-0.669-3.881-0.744-1.712-0.081-2.256-0.1-6.6-0.1v0z"></path>
<path d="M16 7.781c-4.537 0-8.219 3.681-8.219 8.219s3.681 8.219 8.219 8.219 8.219-3.681 8.219-8.219c0-4.537-3.681-8.219-8.219-8.219zM16 21.331c-2.944 0-5.331-2.387-5.331-5.331s2.387-5.331 5.331-5.331c2.944 0 5.331 2.387 5.331 5.331s-2.387 5.331-5.331 5.331z"></path>
<path d="M26.462 7.456c0 1.060-0.859 1.919-1.919 1.919s-1.919-0.859-1.919-1.919c0-1.060 0.859-1.919 1.919-1.919s1.919 0.859 1.919 1.919z"></path>
</symbol>
<symbol id="icon-telegram" viewBox="0 0 32 32">
<path d="M16 0c-8.838 0-16 7.162-16 16s7.162 16 16 16 16-7.163 16-16-7.163-16-16-16zM23.863 10.969l-2.625 12.369c-0.181 0.881-0.712 1.087-1.45 0.681l-4-2.956-1.919 1.869c-0.225 0.219-0.4 0.4-0.8 0.4-0.519 0-0.431-0.194-0.606-0.688l-1.363-4.475-3.956-1.231c-0.856-0.262-0.862-0.85 0.194-1.269l15.412-5.95c0.7-0.319 1.381 0.169 1.113 1.25z"></path>
</symbol>
</defs>
</svg>
