<svg aria-hidden="true" style="position: absolute; width: 0; height: 0; overflow: hidden;" version="1.1" xmlns="http://www.w3.org/2000/svg" xmlns:xlink="http://www.w3.org/1999/xlink">
<defs>
<symbol id="icon-image-2" viewBox="0 0 182 32">
<path d="M0 0h182.069v32h-182.069v-32z"></path>
</symbol>
<symbol id="icon-arrow-down2" viewBox="0 0 32 32" fill="white">
<path d="M27.414 19.414l-10 10c-0.781 0.781-2.047 0.781-2.828 0l-10-10c-0.781-0.781-0.781-2.047 0-2.828s2.047-0.781 2.828 0l6.586 6.586v-19.172c0-1.105 0.895-2 2-2s2 0.895 2 2v19.172l6.586-6.586c0.39-0.39 0.902-0.586 1.414-0.586s1.024 0.195 1.414 0.586c0.781 0.781 0.781 2.047 0 2.828z"></path>
</symbol>
<symbol id="icon-Group-3" viewBox="0 0 54 32">
<path fill="#fff" style="fill: var(--color1, #fff)" d="M7.829 19.333h1.931c0 0 0 0.029 0 0.087 0 0.195-0.051 0.315-0.152 0.358-0.051 0.029-0.112 0.047-0.184 0.054l-0.51 0.022v6.704c-0.181 0.079-0.369 0.119-0.564 0.119l-3.873-5.966v5.424l0.792 0.065c0.029 0.318-0.069 0.477-0.293 0.477h-1.931c0 0 0-0.029 0-0.087 0-0.188 0.051-0.311 0.152-0.369 0.051-0.022 0.112-0.036 0.184-0.043l0.499-0.022v-6.281l-0.792-0.065c-0.029-0.318 0.069-0.477 0.293-0.477h1.15l3.797 5.858v-5.315l-0.792-0.065c-0.029-0.318 0.069-0.477 0.293-0.477zM14.68 23.824h-3.406c-0.007 0.072-0.011 0.184-0.011 0.336 0 0.615 0.13 1.114 0.39 1.497 0.26 0.376 0.665 0.564 1.215 0.564s1.074-0.195 1.573-0.586c0.087 0.072 0.13 0.163 0.13 0.271 0 0.202-0.199 0.409-0.597 0.618-0.39 0.21-0.832 0.315-1.323 0.315-0.673 0-1.211-0.221-1.616-0.662-0.398-0.441-0.597-1.114-0.597-2.018s0.239-1.62 0.716-2.148c0.477-0.535 1.041-0.803 1.692-0.803s1.121 0.206 1.41 0.618c0.289 0.412 0.43 0.904 0.423 1.475v0.521zM13.888 23.336c0-0.485-0.094-0.868-0.282-1.15-0.188-0.289-0.463-0.434-0.824-0.434-0.354 0-0.658 0.141-0.911 0.423s-0.43 0.669-0.532 1.161h2.549zM17.782 21.774c-0.492 0-0.871 0.213-1.139 0.64s-0.401 0.973-0.401 1.638c0 0.658 0.13 1.197 0.39 1.616 0.26 0.412 0.636 0.618 1.128 0.618 0.492-0.007 0.871-0.217 1.139-0.629s0.401-0.944 0.401-1.595c0-0.658-0.13-1.204-0.39-1.638-0.253-0.441-0.629-0.658-1.128-0.651zM17.847 21.21c0.55 0 1.045 0.174 1.486 0.521 0.231 0.188 0.416 0.463 0.553 0.824 0.145 0.362 0.217 0.795 0.217 1.302 0.014 0.897-0.195 1.62-0.629 2.169-0.434 0.542-1.020 0.814-1.757 0.814s-1.298-0.231-1.681-0.694c-0.383-0.463-0.582-1.132-0.597-2.007-0.007-0.875 0.206-1.58 0.64-2.115 0.441-0.542 1.030-0.814 1.768-0.814zM24.928 19.626c0.231 0.195 0.347 0.423 0.347 0.683s-0.069 0.448-0.206 0.564c-0.13 0.108-0.289 0.159-0.477 0.152 0-0.839-0.441-1.258-1.323-1.258-0.412 0-0.756 0.098-1.030 0.293-0.268 0.195-0.401 0.466-0.401 0.814 0 0.412 0.199 0.745 0.597 0.998 0.217 0.137 0.394 0.239 0.532 0.304s0.354 0.163 0.651 0.293c0.297 0.123 0.524 0.224 0.683 0.304 0.166 0.079 0.347 0.184 0.542 0.315 0.195 0.123 0.34 0.242 0.434 0.358 0.231 0.296 0.347 0.64 0.347 1.030 0 0.651-0.246 1.208-0.738 1.671-0.485 0.463-1.125 0.694-1.92 0.694-0.571 0-1.078-0.116-1.519-0.347-0.434-0.231-0.651-0.539-0.651-0.922 0-0.188 0.054-0.344 0.163-0.466 0.116-0.123 0.271-0.184 0.466-0.184 0.087 0.434 0.278 0.763 0.575 0.987s0.691 0.336 1.182 0.336 0.897-0.134 1.215-0.401c0.318-0.275 0.477-0.636 0.477-1.085 0-0.419-0.148-0.738-0.445-0.955-0.231-0.174-0.481-0.315-0.748-0.423-0.26-0.116-0.488-0.217-0.683-0.304s-0.394-0.181-0.597-0.282c-0.195-0.108-0.409-0.246-0.64-0.412-0.448-0.325-0.673-0.767-0.673-1.323s0.213-1.005 0.64-1.345c0.434-0.347 0.969-0.528 1.605-0.542 0.673-0.014 1.204 0.137 1.595 0.456zM28.889 21.21c0.463 0 0.828 0.094 1.096 0.282 0.275 0.188 0.412 0.437 0.412 0.748 0 0.398-0.203 0.589-0.607 0.575-0.007-0.268-0.101-0.503-0.282-0.705-0.174-0.21-0.438-0.315-0.792-0.315-0.513 0-0.908 0.213-1.182 0.64-0.268 0.427-0.401 0.965-0.401 1.616 0 0.571 0.112 1.063 0.336 1.475 0.26 0.456 0.709 0.683 1.345 0.683 0.521 0 1.016-0.192 1.486-0.575 0.094 0.065 0.141 0.152 0.141 0.26 0 0.217-0.206 0.43-0.618 0.64-0.412 0.202-0.853 0.304-1.323 0.304-0.687 0-1.219-0.239-1.595-0.716-0.369-0.477-0.561-1.128-0.575-1.953-0.014-0.832 0.206-1.533 0.662-2.104s1.088-0.857 1.898-0.857zM36.961 26.677h-2.061v-0.087c0-0.231 0.116-0.358 0.347-0.38l0.445-0.022v-2.723c0-0.528-0.112-0.922-0.336-1.182-0.224-0.268-0.517-0.401-0.879-0.401-0.354 0-0.647 0.058-0.879 0.174-0.224 0.116-0.466 0.289-0.727 0.521v3.59l0.824 0.065c0.029 0.296-0.072 0.445-0.304 0.445h-2.061v-0.087c0-0.174 0.051-0.282 0.152-0.325 0.051-0.029 0.112-0.047 0.184-0.054l0.456-0.022v-6.357l-0.564-0.054c-0.174-0.022-0.26-0.177-0.26-0.466l1.573-0.206v2.875c0.499-0.513 1.067-0.77 1.703-0.77 0.506 0 0.94 0.177 1.302 0.532 0.362 0.347 0.546 0.9 0.553 1.66l0.011 2.766 0.814 0.065c0.029 0.296-0.069 0.445-0.293 0.445zM40.293 21.774c-0.492 0-0.871 0.213-1.139 0.64s-0.401 0.973-0.401 1.638c0 0.658 0.13 1.197 0.391 1.616 0.26 0.412 0.636 0.618 1.128 0.618 0.492-0.007 0.871-0.217 1.139-0.629s0.401-0.944 0.401-1.595c0-0.658-0.13-1.204-0.391-1.638-0.253-0.441-0.629-0.658-1.128-0.651zM40.358 21.21c0.55 0 1.045 0.174 1.486 0.521 0.231 0.188 0.416 0.463 0.553 0.824 0.145 0.362 0.217 0.795 0.217 1.302 0.014 0.897-0.195 1.62-0.629 2.169-0.434 0.542-1.020 0.814-1.757 0.814s-1.298-0.231-1.681-0.694c-0.383-0.463-0.582-1.132-0.597-2.007-0.007-0.875 0.206-1.58 0.64-2.115 0.441-0.542 1.031-0.814 1.768-0.814zM45.801 21.774c-0.492 0-0.871 0.213-1.139 0.64s-0.401 0.973-0.401 1.638c0 0.658 0.13 1.197 0.391 1.616 0.26 0.412 0.636 0.618 1.128 0.618 0.492-0.007 0.871-0.217 1.139-0.629s0.401-0.944 0.401-1.595c0-0.658-0.13-1.204-0.391-1.638-0.253-0.441-0.629-0.658-1.128-0.651zM45.866 21.21c0.55 0 1.045 0.174 1.486 0.521 0.231 0.188 0.416 0.463 0.553 0.824 0.145 0.362 0.217 0.795 0.217 1.302 0.014 0.897-0.195 1.62-0.629 2.169-0.434 0.542-1.020 0.814-1.757 0.814s-1.298-0.231-1.681-0.694c-0.383-0.463-0.582-1.132-0.597-2.007-0.007-0.875 0.206-1.58 0.64-2.115 0.441-0.542 1.031-0.814 1.768-0.814zM51.082 26.677h-2.039v-0.087c0-0.231 0.116-0.358 0.347-0.38l0.466-0.022v-6.367l-0.564-0.054c-0.174-0.022-0.26-0.174-0.26-0.456l1.573-0.206v7.062l0.77 0.065c0.029 0.296-0.069 0.445-0.293 0.445z"></path>
<path fill="#fff" style="fill: var(--color1, #fff)" d="M26.171 5.137c-1.886-1.604-6.716-1.838-8.896-1.754l0.857 11.903c3.43-0.401 6.788 0.919 8.038 1.629v-11.777z"></path>
<path fill="#fff" style="fill: var(--color1, #fff)" d="M19.526 0v2.381c1.629-0.501 5.109 0.961 6.645 1.754v-0.752c-1.115-1.704-4.894-2.965-6.645-3.383z"></path>
<path fill="#fff" style="fill: var(--color1, #fff)" d="M27.029 5.137c1.886-1.604 6.716-1.838 8.896-1.754l-0.857 11.903c-3.43-0.401-6.788 0.919-8.038 1.629v-11.777z"></path>
<path fill="#fff" style="fill: var(--color1, #fff)" d="M33.674 0v2.381c-1.629-0.501-5.109 0.961-6.645 1.754v-0.752c1.115-1.704 4.894-2.965 6.645-3.383z"></path>
</symbol>
<symbol id="icon-menu" viewBox="0 0 32 32">
<path d="M2 6h28v6h-28zM2 14h28v6h-28zM2 22h28v6h-28z"></path>
</symbol>
</defs>
</svg>
